<svg xmlns="http://www.w3.org/2000/svg" viewBox="0 0 120 25.8">
  <path
    d="M19.9 17.5v-2.1c0-4.5-1.5-5.5-6.5-5.5h-4c-5 0-6.5 1-6.5 5.5v2.1c0 4.6 1.4 5.6 6.5 5.6h4c5.1 0 6.5-1 6.5-5.6M8.6 25.8c-6.3 0-8.6-2.3-8.6-8V15c0-5.5 2.5-7.7 8.6-7.7h5.5c2.6 0 4.4.7 5.6 2.5V0h2.8v25.5H20v-2.9c-1.1 2.6-3.2 3.2-6.7 3.2H8.5m38.7-11.3v-.4c0-3.6-1.8-4.2-6.1-4.2h-4.5c-4.3 0-6.1 1.1-6.1 4.7h16.7Zm3 1.2v1.4H30.5v1c0 3.7 1.5 5.1 6.2 5.1h4.7c4 0 5.9-.9 5.9-3.1v-.2h3v.5c0 3.4-2.8 5.3-8.2 5.3h-5.4c-6.5 0-9.1-2.2-9.1-7.8V15c0-5.6 2.5-7.9 9.1-7.9h4.5c6.7 0 9.1 2.1 9.1 8.5m4.7 9.9v-18h2.8v2.3c1.2-2.1 3.7-2.5 8.1-2.5s7.3.6 8.5 3.3c1.2-2.3 3.8-3.3 7.9-3.3 7 0 9.9 1.7 9.9 6.6v11.8h-2.6v-11c0-1.7-.1-2.8-1.2-3.5-.9-.6-2.9-1.1-5.9-1.1-4.9 0-7.2 1.2-7.2 4.4v11.2h-2.7V14.5c0-3.5-1.2-4.4-6.8-4.4S58 11.4 58 14.8v10.9h-2.8Zm55.6-2.4c5.1 0 6.5-1 6.5-5.6v-2.1c0-4.5-1.5-5.5-6.5-5.5h-4.7c-5 0-6.5 1-6.5 5.5v2.1c0 4.6 1.4 5.6 6.5 5.6zm-14.1-5.3V15c0-5.5 2.5-7.7 8.6-7.7h6.2c6.2 0 8.6 2.2 8.6 7.7v2.8c0 5.6-2.3 8-8.6 8h-6.2c-6.3 0-8.6-2.3-8.6-8"
    fill="#f2f2f2"
  />
</svg>